{"title":"Sherlock S03 Abominable Bride 1080p 5.1Ch BluRay DeeJayAhmed","uid":13223023,"size":4846407240,"categoryP":"video","categoryS":"hd___tv_shows","magnet":"?xt=urn:btih:beb1afa3c2319823997caa6f94b5874923b879b7&amp;dn=Sherlock+S03+Abominable+Bride+1080p+5.1Ch+BluRay+DeeJayAhmed+&amp;tr=udp%3A%2F%2Ftracker.leechers-paradise.org%3A6969&amp;tr=udp%3A%2F%2Fzer0day.ch%3A1337&amp;tr=udp%3A%2F%2Fopen.demonii.com%3A1337&amp;tr=udp%3A%2F%2Ftracker.coppersurfer.tk%3A6969&amp;tr=udp%3A%2F%2Fexodus.desync.com%3A6969","seeders":4,"leechers":1,"uploader":"DeeJayPirate","files":10,"time":1452812111,"description":"DeeJayAhmed  \nhttps://www.DeeJayAhmed.com\r\n\r\nKeep Seeding!!=)) \r\nDo Comment On The A/V Quality Considering The Size Of The File..!\r\n\r\nVideo \r\nID : 1 \r\nFormat : AVC \r\nFormat/Info : Advanced Video Codec \r\nFormat profile :    \r\nFormat settings, CABAC : Yes \r\nFormat settings, ReFrames : 4 frames \r\nCodec ID : V_MPEG4/ISO/AVC \r\nDuration : 1h 33mn \r\nBit rate : 1 576 Kbps \r\nWidth : 1 920 pixels \r\nHeight : 1 040 pixels \r\nDisplay aspect ratio : 1.85:1 \r\nFrame rate mode : Constant \r\nFrame rate : 24.000 fps \r\nColor space : YUV \r\nChroma subsampling : 4:2:0 \r\nBit depth : 8 bits \r\nScan type : Progressive \r\nBits/(Pixel*Frame) : 0.033 \r\nStream size : 1.02 GiB (86%) \r\nDefault : Yes \r\nForced : No \r\n\r\nAudio \r\nID : 2 \r\nFormat : AAC \r\nFormat/Info : Advanced Audio Codec \r\nFormat profile : HE-AAC / LC \r\nCodec ID : A_AAC \r\nDuration : 1h 33mn \r\nBit rate : 249 Kbps \r\nChannel(s) : 6 channels \r\nChannel positions : Front: L C R, Side: L R, LFE \r\nSampling rate : 48.0 KHz / 24.0 KHz \r\nFrame rate : 23.438 fps (1024 spf) \r\nCompression mode : Lossy \r\nDelay relative to video : 31ms \r\nStream size : 166 MiB (14%) \r\nDefault : Yes \r\nForced : No","torrent":{"xt":"urn:btih:beb1afa3c2319823997caa6f94b5874923b879b7","amp;dn":"Sherlock+S03+Abominable+Bride+1080p+5.1Ch+BluRay+DeeJayAhmed+","amp;tr":["udp%3A%2F%2Ftracker.leechers-paradise.org%3A6969","udp%3A%2F%2Fzer0day.ch%3A1337","udp%3A%2F%2Fopen.demonii.com%3A1337","udp%3A%2F%2Ftracker.coppersurfer.tk%3A6969","udp%3A%2F%2Fexodus.desync.com%3A6969"],"infoHash":"beb1afa3c2319823997caa6f94b5874923b879b7","infoHashBuffer":{"type":"Buffer","data":[190,177,175,163,194,49,152,35,153,124,170,111,148,181,135,73,35,184,121,183]},"announce":[],"urlList":[]}}